<?xml version="1.0" standalone="no"?><svg xmlns="http://www.w3.org/2000/svg" viewBox="0 0 1440 320"><path fill="#0099ff" fill-opacity="1" d="M0,32L0,128L102.9,128L102.9,96L205.7,96L205.7,224L308.6,224L308.6,160L411.4,160L411.4,32L514.3,32L514.3,288L617.1,288L617.1,32L720,32L720,32L822.9,32L822.9,256L925.7,256L925.7,288L1028.6,288L1028.6,288L1131.4,288L1131.4,224L1234.3,224L1234.3,320L1337.1,320L1337.1,256L1440,256L1440,320L1337.1,320L1337.1,320L1234.3,320L1234.3,320L1131.4,320L1131.4,320L1028.6,320L1028.6,320L925.7,320L925.7,320L822.9,320L822.9,320L720,320L720,320L617.1,320L617.1,320L514.3,320L514.3,320L411.4,320L411.4,320L308.6,320L308.6,320L205.7,320L205.7,320L102.9,320L102.9,320L0,320L0,320Z"></path></svg>